<svg width="84" height="50" viewBox="0 0 84 50" fill="none" xmlns="http://www.w3.org/2000/svg">
<path d="M81.709 4.79167C81.0756 4.42597 80.3571 4.23344 79.6257 4.23344C78.8943 4.23344 78.1757 4.42597 77.5423 4.79167L62.834 12.0417C62.7153 8.80654 61.3461 5.74364 59.0146 3.49766C56.6832 1.25169 53.5713 -0.00217406 50.334 2.82982e-06H12.834C9.51878 2.82982e-06 6.33935 1.31696 3.99515 3.66117C1.65095 6.00537 0.333984 9.1848 0.333984 12.5V37.5C0.333984 40.8152 1.65095 43.9946 3.99515 46.3388C6.33935 48.683 9.51878 50 12.834 50H50.334C53.5713 50.0022 56.6832 48.7483 59.0146 46.5023C61.3461 44.2564 62.7153 41.1935 62.834 37.9583L77.6673 45.375C78.2353 45.6662 78.8625 45.823 79.5007 45.8333C80.2808 45.8358 81.0459 45.6193 81.709 45.2083C82.3095 44.833 82.8044 44.3109 83.147 43.6912C83.4897 43.0716 83.6687 42.3748 83.6673 41.6667V8.33334C83.6687 7.62523 83.4897 6.92845 83.147 6.30877C82.8044 5.6891 82.3095 5.16696 81.709 4.79167ZM54.5007 37.5C54.5007 38.6051 54.0617 39.6649 53.2803 40.4463C52.4989 41.2277 51.4391 41.6667 50.334 41.6667H12.834C11.7289 41.6667 10.6691 41.2277 9.88771 40.4463C9.10631 39.6649 8.66732 38.6051 8.66732 37.5V12.5C8.66732 11.3949 9.10631 10.3351 9.88771 9.55373C10.6691 8.77232 11.7289 8.33334 12.834 8.33334H50.334C51.4391 8.33334 52.4989 8.77232 53.2803 9.55373C54.0617 10.3351 54.5007 11.3949 54.5007 12.5V37.5ZM75.334 34.9167L62.834 28.6667V21.3333L75.334 15.0833V34.9167Z" fill="#212121"/>
</svg>
