<svg width="25" height="24" viewBox="0 0 25 24" fill="none" xmlns="http://www.w3.org/2000/svg">
<g clip-path="url(#clip0_157_1418)">
<path d="M10.308 4.24002C10.9963 4.0789 11.701 3.99836 12.408 4.00003C19.408 4.00003 23.408 12 23.408 12C22.8009 13.1356 22.077 14.2048 21.248 15.19M14.528 14.12C14.2533 14.4148 13.9221 14.6512 13.5541 14.8151C13.1861 14.9791 12.7889 15.0673 12.386 15.0744C11.9832 15.0815 11.5831 15.0074 11.2096 14.8565C10.836 14.7056 10.4967 14.4811 10.2118 14.1962C9.92693 13.9113 9.70235 13.572 9.55147 13.1984C9.40058 12.8249 9.32649 12.4247 9.33359 12.0219C9.3407 11.6191 9.42887 11.2219 9.59284 10.8539C9.7568 10.4859 9.99321 10.1547 10.288 9.88003M18.348 17.94C16.6385 19.243 14.5571 19.9649 12.408 20C5.40796 20 1.40796 12 1.40796 12C2.65185 9.68192 4.37709 7.65663 6.46796 6.06003L18.348 17.94Z" stroke="#303030" stroke-opacity="0.4" stroke-width="2" stroke-linecap="round" stroke-linejoin="round"/>
<path d="M1.40796 1L23.408 23" stroke="#303030" stroke-opacity="0.4" stroke-width="2" stroke-linecap="round" stroke-linejoin="round"/>
</g>
<defs>
<clipPath id="clip0_157_1418">
<rect width="24" height="24" fill="white" transform="translate(0.407959)"/>
</clipPath>
</defs>
</svg>
