<svg width="68" height="54" viewBox="0 0 68 54" fill="none" xmlns="http://www.w3.org/2000/svg">
<path d="M57.3333 0.333496H10.6667C8.01451 0.333496 5.47097 1.38706 3.5956 3.26243C1.72024 5.13779 0.666672 7.68133 0.666672 10.3335V43.6668C0.666672 46.319 1.72024 48.8625 3.5956 50.7379C5.47097 52.6133 8.01451 53.6668 10.6667 53.6668H57.3333C59.9855 53.6668 62.529 52.6133 64.4044 50.7379C66.2798 48.8625 67.3333 46.319 67.3333 43.6668V10.3335C67.3333 7.68133 66.2798 5.13779 64.4044 3.26243C62.529 1.38706 59.9855 0.333496 57.3333 0.333496ZM10.6667 47.0002C9.78262 47.0002 8.93477 46.649 8.30965 46.0239C7.68453 45.3987 7.33334 44.5509 7.33334 43.6668V35.6002L18.3333 24.6335C18.9564 24.0227 19.7942 23.6806 20.6667 23.6806C21.5392 23.6806 22.3769 24.0227 23 24.6335L45.3667 47.0002H10.6667ZM60.6667 43.6668C60.6667 44.5509 60.3155 45.3987 59.6904 46.0239C59.0652 46.649 58.2174 47.0002 57.3333 47.0002H54.7667L42.0667 34.2335L45 31.3002C45.6231 30.6894 46.4608 30.3473 47.3333 30.3473C48.2058 30.3473 49.0436 30.6894 49.6667 31.3002L60.6667 42.2668V43.6668ZM60.6667 32.8668L54.4 26.6335C52.5002 24.8083 49.9679 23.7889 47.3333 23.7889C44.6988 23.7889 42.1665 24.8083 40.2667 26.6335L37.3333 29.5668L27.7333 19.9668C25.8335 18.1416 23.3012 17.1223 20.6667 17.1223C18.0322 17.1223 15.4998 18.1416 13.6 19.9668L7.33334 26.2002V10.3335C7.33334 9.44944 7.68453 8.60159 8.30965 7.97647C8.93477 7.35135 9.78262 7.00016 10.6667 7.00016H57.3333C58.2174 7.00016 59.0652 7.35135 59.6904 7.97647C60.3155 8.60159 60.6667 9.44944 60.6667 10.3335V32.8668Z" fill="#212121"/>
</svg>
