<svg width="21" height="21" viewBox="0 0 21 21" fill="none" xmlns="http://www.w3.org/2000/svg">
<path fill-rule="evenodd" clip-rule="evenodd" d="M2.81592 9.56865C2.81592 5.70266 5.94992 2.56865 9.81592 2.56865C13.6819 2.56865 16.8159 5.70266 16.8159 9.56865C16.8159 11.4546 16.0701 13.1663 14.8573 14.425C14.8231 14.4514 14.7902 14.4802 14.7588 14.5115C14.7275 14.5429 14.6986 14.5758 14.6723 14.61C13.4136 15.8228 11.7019 16.5686 9.81592 16.5686C5.94992 16.5686 2.81592 13.4346 2.81592 9.56865ZM15.4336 16.6005C13.8939 17.8322 11.9409 18.5686 9.81592 18.5686C4.84536 18.5686 0.815918 14.5392 0.815918 9.56865C0.815918 4.59809 4.84536 0.568649 9.81592 0.568649C14.7865 0.568649 18.8159 4.59809 18.8159 9.56865C18.8159 11.6937 18.0794 13.6467 16.8478 15.1863L20.523 18.8615C20.9135 19.2521 20.9135 19.8852 20.523 20.2758C20.1325 20.6663 19.4993 20.6663 19.1088 20.2758L15.4336 16.6005Z" fill="#303030" fill-opacity="0.4"/>
</svg>
