<svg width="91" height="27" viewBox="0 0 91 27" fill="none" xmlns="http://www.w3.org/2000/svg">
<path d="M15.3338 1.618V5.154H10.3418V20H5.8698V5.154H0.929797V1.618H15.3338ZM22.7198 5.31C23.8292 5.31 24.7825 5.56133 25.5798 6.064C26.3772 6.56667 26.9665 7.25133 27.3478 8.118V5.492H31.7678V20H27.3478V17.374C26.9665 18.2407 26.3772 18.9253 25.5798 19.428C24.7825 19.9307 23.8292 20.182 22.7198 20.182C21.5238 20.182 20.4492 19.8873 19.4958 19.298C18.5598 18.6913 17.8145 17.8247 17.2598 16.698C16.7225 15.5713 16.4538 14.254 16.4538 12.746C16.4538 11.2207 16.7225 9.90333 17.2598 8.794C17.8145 7.66733 18.5598 6.80933 19.4958 6.22C20.4492 5.61333 21.5238 5.31 22.7198 5.31ZM24.1498 9.21C23.1965 9.21 22.4252 9.522 21.8358 10.146C21.2638 10.77 20.9778 11.6367 20.9778 12.746C20.9778 13.8553 21.2638 14.722 21.8358 15.346C22.4252 15.97 23.1965 16.282 24.1498 16.282C25.0858 16.282 25.8485 15.9613 26.4378 15.32C27.0445 14.6787 27.3478 13.8207 27.3478 12.746C27.3478 11.654 27.0445 10.796 26.4378 10.172C25.8485 9.53067 25.0858 9.21 24.1498 9.21ZM40.1069 5.31C41.9443 5.31 43.4089 5.76933 44.5009 6.688C45.6103 7.60667 46.3036 8.82 46.5809 10.328H42.4209C42.2996 9.73867 42.0223 9.27933 41.5889 8.95C41.1729 8.60333 40.6443 8.43 40.0029 8.43C39.5003 8.43 39.1189 8.54267 38.8589 8.768C38.5989 8.976 38.4689 9.27933 38.4689 9.678C38.4689 10.1287 38.7029 10.4667 39.1709 10.692C39.6563 10.9173 40.4103 11.1427 41.4329 11.368C42.5423 11.628 43.4523 11.8967 44.1629 12.174C44.8736 12.434 45.4889 12.8673 46.0089 13.474C46.5289 14.0807 46.7889 14.8953 46.7889 15.918C46.7889 16.75 46.5636 17.4867 46.1129 18.128C45.6623 18.7693 45.0123 19.272 44.1629 19.636C43.3136 20 42.3083 20.182 41.1469 20.182C39.1883 20.182 37.6196 19.7487 36.4409 18.882C35.2623 18.0153 34.5429 16.776 34.2829 15.164H38.5729C38.6423 15.788 38.9023 16.2647 39.3529 16.594C39.8209 16.9233 40.4189 17.088 41.1469 17.088C41.6496 17.088 42.0309 16.9753 42.2909 16.75C42.5509 16.5073 42.6809 16.1953 42.6809 15.814C42.6809 15.3113 42.4383 14.956 41.9529 14.748C41.4849 14.5227 40.7136 14.2887 39.6389 14.046C38.5643 13.8207 37.6803 13.578 36.9869 13.318C36.2936 13.058 35.6956 12.642 35.1929 12.07C34.6903 11.4807 34.4389 10.6833 34.4389 9.678C34.4389 8.378 34.9329 7.32933 35.9209 6.532C36.9089 5.71733 38.3043 5.31 40.1069 5.31ZM58.0388 20L53.6968 13.838V20H49.2508V0.76H53.6968V11.316L58.0388 5.492H63.2648L57.4148 12.746L63.3948 20H58.0388ZM68.3724 5.492L71.8564 14.384L75.1064 5.492H80.0204L70.9724 26.916H66.0844L69.4904 19.454L63.4064 5.492H68.3724ZM90.524 15.554V20H85.922V15.554H90.524Z" fill="#F26950"/>
</svg>
